<?xml version="1.0" encoding="utf-8"?>
<!-- Generator: Adobe Illustrator 23.0.4, SVG Export Plug-In . SVG Version: 6.00 Build 0)  -->
<svg version="1.1" id="Laag_1" xmlns="http://www.w3.org/2000/svg" xmlns:xlink="http://www.w3.org/1999/xlink" x="0px" y="0px"
	 viewBox="0 0 69.2 50" style="enable-background:new 0 0 69.2 50;" xml:space="preserve">
<style type="text/css">
	.st0{fill:#00A19A;}
	.st1{fill:#95C11F;}
</style>
<circle class="st0" cx="61" cy="17.1" r="8.2"/>
<circle class="st0" cx="58.7" cy="34.2" r="5.8"/>
<g>
	<path class="st1" d="M28.2,21.3c-0.5-1.3-1.1-2.1-2-2.6s-1.9-0.5-3.2-0.1c-1.1,0.4-1.9,1.1-2.4,2.1c-0.4,1-0.5,2.3-0.2,3.8l8-2.7
		L28.2,21.3z"/>
	<path class="st1" d="M25,0C11.2,0,0,11.2,0,25s11.2,25,25,25s25-11.2,25-25S38.8,0,25,0z M35.9,31.1c-0.4,0.8-1,1.5-1.7,2.2
		c-1.2,1.2-2.7,2.1-4.5,2.7c-3.1,1.1-6,1-8.6-0.3s-4.5-3.5-5.6-6.7l-0.2-0.6c-0.7-2.1-1-4.2-0.7-6.2s1-3.7,2.2-5.1s2.8-2.5,4.8-3.1
		c2.9-1,5.6-0.9,7.9,0.4s4,3.6,5.2,7l0,0c0.4,1.3-0.2,2.7-1.6,3.1l-11.3,3.8c0.7,1.3,1.6,2.3,2.8,2.8c1.2,0.5,2.5,0.6,4,0.1
		c1.6-0.6,2.9-1.5,3.7-2.7c0.5-0.8,1.5-1,2.2-0.6l0.8,0.5C36.1,29,36.4,30.2,35.9,31.1z"/>
</g>
</svg>
